HIERARCHY
ROOT joint_Root
{
	OFFSET 0.0 0.0 0.0
	CHANNELS 6 Xposition Yposition Zposition Zrotation Xrotation Yrotation 
	JOINT Hips
	{
		OFFSET 4.5925 91.4895 -427.239
		CHANNELS 6 Xposition Yposition Zposition Zrotation Xrotation Yrotation 
		JOINT Spine
		{
			OFFSET 15.7357 0.0 0.0
			CHANNELS 6 Xposition Yposition Zposition Zrotation Xrotation Yrotation 
			JOINT Chest
			{
				OFFSET 8.98455 -0.406207 0.0
				CHANNELS 6 Xposition Yposition Zposition Zrotation Xrotation Yrotation 
				JOINT Neck
				{
					OFFSET 16.3773 0.0 0.0
					CHANNELS 6 Xposition Yposition Zposition Zrotation Xrotation Yrotation 
					JOINT Head
					{
						OFFSET 6.45672 0.0 0.0
						CHANNELS 6 Xposition Yposition Zposition Zrotation Xrotation Yrotation 
						End Site
						{
							OFFSET 0.0 0.0 0.0
						}
					}
				}
				JOINT Shoulder_L
				{
					OFFSET 12.9942 -0.242716 4.98039
					CHANNELS 6 Xposition Yposition Zposition Zrotation Xrotation Yrotation 
					JOINT UpperArm_L
					{
						OFFSET 5.34809 0.0 0.0
						CHANNELS 6 Xposition Yposition Zposition Zrotation Xrotation Yrotation 
						JOINT LowerArm_L
						{
							OFFSET 24.3286 1.87007e-05 0.0
							CHANNELS 6 Xposition Yposition Zposition Zrotation Xrotation Yrotation 
							JOINT Hand_L
							{
								OFFSET 22.2916 0.0 0.0
								CHANNELS 6 Xposition Yposition Zposition Zrotation Xrotation Yrotation 
								End Site
								{
									OFFSET 0.0 0.0 0.0
								}
							}
						}
					}
				}
				JOINT Shoulder_R
				{
					OFFSET 12.9945 -0.242716 -4.98039
					CHANNELS 6 Xposition Yposition Zposition Zrotation Xrotation Yrotation 
					JOINT UpperArm_R
					{
						OFFSET -5.34813 0.0 0.0
						CHANNELS 6 Xposition Yposition Zposition Zrotation Xrotation Yrotation 
						JOINT LowerArm_R
						{
							OFFSET -24.3289 0.000322201 0.0
							CHANNELS 6 Xposition Yposition Zposition Zrotation Xrotation Yrotation 
							JOINT Hand_R
							{
								OFFSET -22.2915 -0.000108084 0.0
								CHANNELS 6 Xposition Yposition Zposition Zrotation Xrotation Yrotation 
								End Site
								{
									OFFSET 0.0 0.0 0.0
								}
							}
						}
					}
				}
			}
		}
		JOINT UpperLeg_L
		{
			OFFSET -2.19248 -6.46944 0.0
			CHANNELS 6 Xposition Yposition Zposition Zrotation Xrotation Yrotation 
			JOINT LowerLeg_L
			{
				OFFSET 39.0811 0.0 -1.23785e-05
				CHANNELS 6 Xposition Yposition Zposition Zrotation Xrotation Yrotation 
				JOINT Foot_L
				{
					OFFSET 40.9854 0.0 -1.26872e-05
					CHANNELS 6 Xposition Yposition Zposition Zrotation Xrotation Yrotation 
					JOINT Toes_L
					{
						OFFSET 11.7543 0.0 0.0
						CHANNELS 6 Xposition Yposition Zposition Zrotation Xrotation Yrotation 
						End Site
						{
							OFFSET 0.0 0.0 0.0
						}
					}
				}
			}
		}
		JOINT UpperLeg_R
		{
			OFFSET -2.19251 6.46944 0.0
			CHANNELS 6 Xposition Yposition Zposition Zrotation Xrotation Yrotation 
			JOINT LowerLeg_R
			{
				OFFSET -39.0811 -0.00228153 -0.0401928
				CHANNELS 6 Xposition Yposition Zposition Zrotation Xrotation Yrotation 
				JOINT Foot_R
				{
					OFFSET -40.9854 0.0 0.0
					CHANNELS 6 Xposition Yposition Zposition Zrotation Xrotation Yrotation 
					JOINT Toes_R
					{
						OFFSET -11.7543 0.0 0.0
						CHANNELS 6 Xposition Yposition Zposition Zrotation Xrotation Yrotation 
						End Site
						{
							OFFSET 0.0 0.0 0.0
						}
					}
				}
			}
		}
	}
}
MOTION
Frames:	4
Frame Time:	0.0333333
0.000000 0.000000 0.000000 0.000000 0.000000 -0.000000 -15.214500 93.758900 -32.688500 85.773800 -6.143070 -4.272470 15.735700 0.000005 -0.000001 138.331000 83.233800 -138.626000 8.984550 -0.406207 -0.000000 1.280290 10.120800 -0.703822 16.377300 -0.000001 -0.000001 -6.225110 -0.106128 0.320235 6.456720 -0.000001 -0.000000 -14.499300 -3.236110 1.628530 12.994200 -0.242716 4.980390 -85.236200 -10.738300 -65.902900 5.348090 -0.000007 -0.000001 -65.033500 35.308800 19.630400 24.328600 0.000019 0.000005 18.754800 -7.156010 -110.147000 22.291600 -0.000001 0.000005 6.075100 5.425710 -3.792380 12.994500 -0.242716 -4.980390 90.501900 -3.425230 -81.657900 -5.348130 -0.000001 -0.000004 -66.357500 47.271300 -17.530900 -24.328900 0.000322 -0.000009 -2.565890 0.865709 -108.631000 -22.291500 -0.000108 -0.000004 17.590000 5.492600 -6.237790 -2.192480 -6.469440 -0.000000 -175.844000 -2.321920 -22.837200 39.081100 -0.000007 -0.000012 0.008865 -0.023642 20.554800 40.985400 -0.000006 -0.000013 3.520190 2.999890 -67.907800 11.754300 -0.000000 0.000003 -0.006279 -0.073360 -19.562700 -2.192510 6.469440 -0.000001 174.766000 14.813000 -172.002000 -39.081100 -0.002282 -0.040193 0.183591 -0.232525 37.791200 -40.985400 0.000008 0.000006 -1.743430 8.335580 -35.144700 -11.754300 -0.000006 -0.000006 -0.019664 -0.165423 -23.331000
0.000000 0.000000 0.000000 0.000000 0.000000 -0.000000 -15.073700 92.418800 -24.659200 85.958500 -6.473520 -4.153820 15.735700 0.000005 -0.000001 135.830000 83.376000 -136.428000 8.984550 -0.406207 -0.000000 1.538180 9.530030 -1.324760 16.377300 -0.000001 -0.000001 -5.449930 -0.143659 -0.620497 6.456720 -0.000001 -0.000000 -14.373300 -3.433350 0.222972 12.994200 -0.242716 4.980390 -84.573100 -11.872200 -65.213500 5.348090 -0.000007 -0.000001 -63.740600 33.021300 20.208000 24.328600 0.000019 0.000005 20.186400 -7.789830 -110.237000 22.291600 -0.000001 0.000005 4.767460 5.404460 -3.081320 12.994500 -0.242716 -4.980390 90.442100 -2.778210 -80.950700 -5.348130 -0.000001 -0.000004 -60.767600 50.451800 -19.956400 -24.328900 0.000322 -0.000009 -3.422580 1.113840 -108.005000 -22.291500 -0.000108 -0.000004 16.659400 5.476780 -5.626150 -2.192480 -6.469440 -0.000000 -176.910000 -5.143910 -24.514600 39.081100 -0.000007 -0.000012 0.040521 -0.104187 21.252300 40.985400 -0.000006 -0.000013 0.941111 3.708850 -69.536300 11.754300 -0.000000 0.000003 -0.006211 -0.072751 -19.537800 -2.192510 6.469440 -0.000001 175.944000 10.147700 -172.698000 -39.081100 -0.002282 -0.040193 0.191713 -0.183380 45.781500 -40.985400 0.000008 0.000006 1.632120 0.651707 -39.760800 -11.754300 -0.000006 -0.000006 -0.018883 -0.161021 -23.149700
0.000000 0.000000 0.000000 0.000000 0.000000 -0.000000 -14.480600 90.370400 -16.894300 88.825300 -4.939410 -3.149930 15.735700 0.000005 -0.000001 122.846000 83.579400 -124.476000 8.984550 -0.406207 -0.000000 3.144920 7.023390 -3.451950 16.377300 -0.000001 -0.000001 -4.427020 -0.122441 -1.871600 6.456720 -0.000001 -0.000000 -16.144900 -3.860830 -0.503304 12.994200 -0.242716 4.980390 -85.146700 -10.261800 -64.516100 5.348090 -0.000007 -0.000001 -59.336900 29.431200 18.229400 24.328600 0.000019 0.000005 21.326000 -8.309620 -110.314000 22.291600 -0.000001 0.000005 2.902740 5.384350 -2.434180 12.994500 -0.242716 -4.980390 89.947500 0.291614 -79.826900 -5.348130 -0.000001 -0.000004 -54.185000 51.851600 -21.746400 -24.328900 0.000322 -0.000009 -3.386790 1.091370 -107.840000 -22.291500 -0.000108 -0.000004 15.040200 5.477960 -5.671970 -2.192480 -6.469440 -0.000000 178.356000 -6.469730 -28.337400 39.081100 -0.000007 -0.000012 0.112829 -0.182309 31.752800 40.985400 -0.000006 -0.000013 3.077160 -0.770877 -61.992700 11.754300 -0.000000 0.000003 -0.006705 -0.077116 -19.715900 -2.192510 6.469440 -0.000001 174.521000 7.949810 -175.028000 -39.081100 -0.002282 -0.040193 0.195990 -0.123788 57.294000 -40.985400 0.000008 0.000006 6.393890 -3.309260 -39.983100 -11.754300 -0.000006 -0.000006 -0.017154 -0.150982 -22.736800
0.000000 0.000000 0.000000 0.000000 0.000000 -0.000000 -14.049200 87.120100 -9.208820 90.200500 -3.382810 -2.082130 15.735700 0.000005 -0.000001 110.947000 83.402500 -112.941000 8.984550 -0.406207 -0.000000 4.656040 4.762890 -4.178450 16.377300 -0.000001 -0.000001 -4.732520 -0.503686 -2.604850 6.456720 -0.000001 -0.000000 -15.364200 -4.109580 -1.807710 12.994200 -0.242716 4.980390 -86.483000 -7.604880 -65.091900 5.348090 -0.000007 -0.000001 -54.862400 24.980000 15.554000 24.328600 0.000019 0.000005 22.243100 -8.737660 -110.377000 22.291600 -0.000001 0.000005 3.202140 5.395280 -2.780560 12.994500 -0.242716 -4.980390 89.414600 3.019540 -79.025700 -5.348130 -0.000001 -0.000004 -53.738200 50.627900 -17.313000 -24.328900 0.000322 -0.000009 -2.555320 0.807683 -107.527000 -22.291500 -0.000108 -0.000004 13.011600 5.486470 -6.004140 -2.192480 -6.469440 -0.000000 177.249000 -3.543920 -30.331100 39.081100 -0.000007 -0.000012 -0.266426 0.249412 46.889700 40.985400 -0.000006 -0.000013 2.941430 -1.807790 -69.162700 11.754300 -0.000000 0.000003 -0.000003 -0.000050 -16.579500 -2.192510 6.469440 -0.000001 174.350000 6.326390 179.874000 -39.081100 -0.002282 -0.040193 0.175688 -0.053794 72.690700 -40.985400 0.000008 0.000006 6.086660 -4.624380 -39.116900 -11.754300 -0.000006 -0.000006 -0.017262 -0.151619 -22.763000
